<svg width="100" height="100" viewBox="0 0 100 100" fill="none" xmlns="http://www.w3.org/2000/svg">
<path d="M68.8281 38.0156L63.9844 33.1719C63.2812 32.3906 62.3438 32 61.3281 32C60.3906 32 59.4531 32.3906 58.6719 33.1719L31.0938 60.75C29.6094 62.2344 29.6094 64.5781 31.0938 66.0625L35.9375 70.9062C36.6406 71.6875 37.5781 72 38.5938 72C39.5312 72 40.4688 71.6875 41.25 70.9062L68.8281 43.3281C70.3125 41.8438 70.3125 39.5 68.8281 38.0156ZM38.5938 68.25L33.75 63.4062L51.1719 45.9062L56.0938 50.8281L38.5938 68.25ZM58.75 48.1719L53.8281 43.25L61.3281 35.75L66.25 40.6719L58.75 48.1719ZM63.75 54.5L61.6406 58.7188L57.5 60.75L61.6406 62.8594L63.75 67L65.7812 62.8594L70 60.75L65.7812 58.7188L63.75 54.5ZM47.5 39.5L48.75 37L51.25 35.75L48.75 34.5L47.5 32L46.25 34.5L43.75 35.75L46.25 37L47.5 39.5ZM36.25 44.5L38.2812 40.3594L42.5 38.25L38.2812 36.2188L36.25 32L34.1406 36.2188L30 38.25L34.1406 40.3594L36.25 44.5Z" fill="#D4B373"/>
<circle cx="50" cy="50" r="49" stroke="#D4B373" stroke-width="2"/>
</svg>
