<svg width="30" height="28" viewBox="0 0 30 28" fill="none" xmlns="http://www.w3.org/2000/svg">
<path fill-rule="evenodd" clip-rule="evenodd" d="M6.87492 22.4997H0V25H6.87492V22.4997ZM13.75 20.0006H8.74992C8.06639 20.0006 7.50001 20.5663 7.50001 21.2502V26.2502C7.50001 26.9335 8.06639 27.5003 8.74992 27.5003H13.75C14.4335 27.5003 15 26.9335 15 26.2502V21.2502C15 20.5663 14.4335 20.0006 13.75 20.0006ZM16.875 12.5003H0V15H16.875V12.5003ZM4.37497 2.50031H0V5.00002H4.37497V2.50031ZM30 22.4997H15.625V25H30V22.4997ZM11.25 0H6.24997C5.56641 0 4.99993 0.565688 4.99993 1.25017V6.25016C4.99993 6.93343 5.56641 7.50033 6.24997 7.50033H11.25C11.9336 7.50033 12.4999 6.93343 12.4999 6.25016V1.25017C12.4999 0.565688 11.9336 0 11.25 0ZM23.7499 10.0006H18.75C18.0663 10.0006 17.5 10.5663 17.5 11.2502V16.2502C17.5 16.9334 18.0663 17.5003 18.75 17.5003H23.7499C24.4336 17.5003 25 16.9334 25 16.2502V11.2502C25 10.5663 24.4336 10.0006 23.7499 10.0006ZM30 12.5003H25.6249V15H30V12.5003ZM30 2.50031H13.125V5.00002H30V2.50031Z" fill="#D4B373"/>
</svg>
