<svg width="35" height="35" viewBox="0 0 35 35" fill="none" xmlns="http://www.w3.org/2000/svg">
<g clip-path="url(#clip0)">
<path d="M21.7809 0C14.6296 0 8.81212 5.81752 8.81212 12.9688C8.81212 15.8751 9.78478 18.5522 11.4059 20.7173C11.0742 20.9589 10.7411 21.2053 10.4134 21.4613C9.73086 21.9834 9.03805 22.5131 8.34525 23.0428C7.65722 23.5779 6.91868 24.0625 6.18697 24.5342C5.45662 25.0079 4.7529 25.4891 4.1693 26.0522C3.58571 26.614 3.09767 27.2351 2.68745 27.876C2.2663 28.5054 1.90864 29.1415 1.61172 29.762C1.30798 30.3763 1.07249 30.981 0.883422 31.538C0.687526 32.0875 0.565346 32.6151 0.467056 33.052C0.369449 33.4902 0.314844 33.8553 0.286176 34.114C0.255461 34.37 0.25 34.5167 0.25 34.5167L0.732575 35.002C0.732575 35.002 0.88001 34.9966 1.13597 34.9652C1.39398 34.9365 1.75916 34.8819 2.19736 34.7843C2.63421 34.6853 3.16183 34.5638 3.7113 34.3679C4.26759 34.1796 4.87235 33.9434 5.48666 33.6396C6.10711 33.3427 6.74258 32.9851 7.37259 32.5646C8.01352 32.1544 8.63329 31.6663 9.19641 31.0827C9.75885 30.4991 10.2401 29.7947 10.7138 29.0651C11.1861 28.3334 11.67 27.5948 12.2052 26.9068C12.7348 26.2126 13.2652 25.5205 13.7867 24.8386C14.0665 24.4816 14.3341 24.1199 14.5962 23.7581C16.6548 25.1335 19.1243 25.9389 21.7809 25.9389C28.9328 25.9389 34.7497 20.1221 34.7497 12.9701C34.7497 5.81684 28.9322 0 21.7809 0ZM21.7809 21.1596C20.1543 21.1596 18.6411 20.677 17.3647 19.8566C16.5688 19.3446 15.8706 18.7003 15.2945 17.9515C14.2297 16.5693 13.5894 14.8445 13.5894 12.9688C13.5894 8.45223 17.2637 4.77797 21.7802 4.77797C26.2968 4.77797 29.971 8.45223 29.971 12.9688C29.971 17.4853 26.2981 21.1596 21.7809 21.1596ZM24.7555 12.9688C24.7555 14.6117 23.4238 15.9441 21.7809 15.9441C21.2191 15.9441 20.699 15.7789 20.2506 15.5086C20.0356 15.3789 19.8342 15.2294 19.6595 15.0506C19.1325 14.5141 18.8063 13.7803 18.8063 12.9688C18.8063 11.3258 20.138 9.99347 21.7809 9.99347C23.4238 9.99347 24.7555 11.3258 24.7555 12.9688Z" fill="#D4B373"/>
</g>
<defs>
<clipPath id="clip0">
<rect width="35" height="35" fill="white"/>
</clipPath>
</defs>
</svg>
