<svg width="36" height="36" viewBox="0 0 36 36" fill="none" xmlns="http://www.w3.org/2000/svg">
<g clip-path="url(#clip0)">
<path d="M21.369 16.8937L23.3002 14.9673L21.3304 12.9991L19.404 14.9302C18.596 14.3802 17.6737 13.9986 16.6819 13.8055V11.0757H13.9043V13.807C12.9093 13.9986 11.9917 14.3786 11.1868 14.9301L9.25579 12.9991L7.29072 14.9672L9.21561 16.8937C8.67339 17.7017 8.2918 18.6177 8.09865 19.6158H5.36426V22.3919H8.09865C8.29173 23.3837 8.67181 24.3013 9.21561 25.1093L7.29072 27.0404L9.25421 29.0054L11.1853 27.0775C11.9901 27.6243 12.9093 28.0059 13.9043 28.199V30.9319H16.6835V28.199C17.6752 28.009 18.5945 27.6289 19.4055 27.0805L21.332 29.0054L23.3017 27.0404L21.3707 25.1093C21.9176 24.3045 22.3007 23.3837 22.4861 22.3919H25.2235V19.6158H22.4845C22.2975 18.6178 21.9175 17.7017 21.369 16.8937ZM15.2916 24.0388C13.6185 24.0388 12.2605 22.6746 12.2605 20.9985C12.2605 19.3269 13.6185 17.9659 15.2916 17.9659C16.9693 17.9659 18.3288 19.327 18.3288 20.9985C18.3303 22.6746 16.9708 24.0388 15.2916 24.0388Z" fill="#D4B373"/>
<path d="M24.069 7.54587C21.6328 5.98709 18.7516 5.06787 15.648 5.06787C7.00593 5.06794 0 12.0724 0 20.7143C0 24.3262 1.23592 27.6369 3.2875 30.2879L5.25257 28.3244C3.68914 26.1909 2.73754 23.5817 2.73754 20.7267C2.73754 13.5972 8.51686 7.82095 15.6464 7.82095C18.0178 7.82095 20.2053 8.50534 22.1163 9.63312L20.6085 11.2398L26.7369 11.7959L26.0788 5.3971L24.069 7.54587Z" fill="#D4B373"/>
<path d="M35.9996 21.0434L32.1607 17.2061V19.355H27.1074V22.732H32.1607V24.8856L35.9996 21.0434Z" fill="#D4B373"/>
</g>
<defs>
<clipPath id="clip0">
<rect width="36" height="36" fill="white"/>
</clipPath>
</defs>
</svg>
