<svg width="100" height="100" viewBox="0 0 100 100" fill="none" xmlns="http://www.w3.org/2000/svg">
<circle cx="50" cy="50" r="49" stroke="#D4B373" stroke-width="2"/>
<path fill-rule="evenodd" clip-rule="evenodd" d="M48.5966 43.4038C46.1434 45.9711 43.7423 48.4837 43.7423 51.4978C43.7423 53.5473 45.0621 55.138 46.4539 56.8154C46.5873 56.9762 46.7215 57.1379 46.8551 57.3008C47.0075 57.4797 47.1595 57.657 47.3104 57.8332C49.2871 60.1399 51.0756 62.227 51.0756 64.5232C51.0661 65.7339 50.6555 67.0031 49.4046 68.3975C49.4046 68.2116 49.4855 68.0021 49.5793 67.7591C49.7088 67.4237 49.863 67.0245 49.863 66.5355C49.863 65.2664 48.6216 63.204 42.4055 59.3047C39.1303 56.875 36.0557 54.4202 36.0557 50.2621C36.0557 45.2111 39.9626 41.3888 43.6554 37.7759C46.9645 34.5385 50.1017 31.4692 50.1017 27.835C50.1017 27.5594 50.0826 27.2755 50.0444 27C50.5314 27.2004 53.7779 30.6154 53.7779 34.5481C53.7779 37.9818 51.1588 40.7226 48.5966 43.4038ZM54.3031 37.3118C55.8977 37.8545 62.1902 42.6639 63.3456 48.2415C63.4888 48.9428 63.5557 49.6275 63.5557 50.2955C63.5557 54.6206 60.7484 58.4364 57.1294 61.7178C57.1161 61.7295 57.1023 61.7418 57.0883 61.7544C57.0022 61.8317 56.906 61.9182 56.8239 61.9182C56.4801 61.9182 53.4341 58.4447 53.4341 57.4761C53.4341 57.4761 57.4255 52.8254 57.4255 49.3854C57.4255 48.4836 57.1676 47.5735 56.5565 46.5966C56.4133 49.2935 51.238 53.9192 51.0088 53.9192C50.751 53.9192 49.2996 52.0823 49.2996 50.404C49.2996 49.9615 49.3951 49.5106 49.6051 49.0848C49.6462 49.0026 49.8456 48.7573 50.1454 48.3884C51.521 46.6964 55.0097 42.4051 55.0097 39.3408C55.0097 38.8231 54.9142 38.3388 54.685 37.913L54.3031 37.3118ZM66 69.0822H34V72.2885H66V69.0822Z" fill="#D4B373"/>
</svg>
