<svg width="36" height="36" viewBox="0 0 36 36" fill="none" xmlns="http://www.w3.org/2000/svg">
<path d="M15.6418 19.5416C16.9455 18.6589 18.8261 17.0959 21.0693 15.0377C20.6643 14.7929 20.2346 14.4812 19.8297 14.0836C19.3854 13.6655 19.0271 13.2227 18.7605 12.7988C16.8159 15.1061 15.3563 17.0377 14.5217 18.3778C14.2522 18.3778 11.9128 18.42 10.2828 20.1199C8.55375 21.9291 8.6514 26.3136 8.6514 26.3136C8.6514 26.3136 9.75988 24.5947 11.8327 24.1082C14.2347 23.5532 15.3199 22.034 15.6418 19.5416Z" fill="#D4B373"/>
<path d="M13.2402 30.4724L13.4048 30.6254L19.3873 27.5169L16.2045 24.458L13.2402 30.4724Z" fill="#D4B373"/>
<path d="M29.4285 10.6621L27.5932 12.5762V8.61116C27.9588 8.24117 28.1875 8.00954 28.1875 8.00954C28.1875 8.00954 33.864 2.27326 32.2676 1.17639C30.6682 0.0824291 25.4432 5.38903 25.4432 5.38903C25.4432 5.38903 24.5445 6.35624 23.3879 7.61477H0V34.972H27.5932V18.9636L32.6142 13.724L29.4285 10.6621ZM25.3208 32.6953C23.3471 32.6953 4.25052 32.6953 2.27382 32.6953C2.27382 30.723 2.27382 11.8609 2.27382 9.88717C3.76836 9.88717 15.05 9.88717 21.3165 9.88717C20.4586 10.8355 19.6472 11.7458 19.0966 12.3969C19.3646 12.831 19.7346 13.2841 20.1833 13.7181C20.5984 14.1129 21.0339 14.4435 21.4462 14.6839C22.4032 13.7909 23.9501 12.2629 25.3208 10.8937C25.3208 11.8274 25.3208 13.2578 25.3208 14.949L16.8549 23.7821L20.0405 26.8425L25.3208 21.335C25.3208 26.5293 25.3208 31.7121 25.3208 32.6953Z" fill="#D4B373"/>
<path d="M35.823 9.31458L33.692 7.27967C33.4065 6.99855 32.8442 7.09762 32.4654 7.49961L30.0605 10.0022L33.2491 13.0655L35.6497 10.5542C36.0401 10.1536 36.1129 9.5899 35.823 9.31458Z" fill="#D4B373"/>
</svg>
