<svg width="80" height="80" viewBox="0 0 80 80" fill="none" xmlns="http://www.w3.org/2000/svg">
<circle cx="40" cy="40" r="40" fill="#D4B373"/>
<path d="M51.7493 41.2499C51.6506 41.2505 51.5527 41.2316 51.4614 41.1943C51.37 41.1569 51.2869 41.1019 51.2168 41.0324L40.4993 30.3074L29.7818 41.0324C29.6383 41.1553 29.4538 41.2195 29.265 41.2122C29.0762 41.2049 28.8972 41.1267 28.7636 40.9931C28.63 40.8595 28.5518 40.6805 28.5445 40.4917C28.5372 40.303 28.6014 40.1184 28.7243 39.9749L39.9743 28.7249C40.1148 28.5852 40.3049 28.5068 40.503 28.5068C40.7012 28.5068 40.8913 28.5852 41.0318 28.7249L52.2818 39.9749C52.385 40.0802 52.4549 40.2136 52.4827 40.3584C52.5105 40.5032 52.4951 40.6529 52.4383 40.789C52.3814 40.925 52.2858 41.0413 52.1632 41.1233C52.0407 41.2053 51.8967 41.2493 51.7493 41.2499Z" fill="white"/>
<path d="M40.5 32.8425L31.5 41.8725V51C31.5 51.3979 31.658 51.7794 31.9393 52.0607C32.2206 52.342 32.6022 52.5 33 52.5H38.25V45H42.75V52.5H48C48.3978 52.5 48.7794 52.342 49.0607 52.0607C49.342 51.7794 49.5 51.3979 49.5 51V41.82L40.5 32.8425Z" fill="white"/>
</svg>
