<svg width="35" height="35" viewBox="0 0 35 35" fill="none" xmlns="http://www.w3.org/2000/svg">
<g clip-path="url(#clip0)">
<path d="M4.37471 16.042C4.00138 16.042 3.62805 15.8991 3.34367 15.6147C2.77346 15.0445 2.77346 14.1228 3.34367 13.5526L13.4149 3.48137C13.9851 2.91116 14.9068 2.91116 15.477 3.48137C16.0472 4.05158 16.0472 4.97324 15.477 5.54345L5.40576 15.6147C5.12138 15.8991 4.74805 16.042 4.37471 16.042Z" fill="#D4B373"/>
<path d="M16.406 8.74967C16.1217 8.74967 15.8417 8.63884 15.6331 8.42884L10.529 3.32467C10.2154 3.01259 10.1221 2.54155 10.2912 2.13322C10.4604 1.72488 10.86 1.45801 11.3019 1.45801H16.406C17.0098 1.45801 17.4998 1.94801 17.4998 2.55176V7.65592C17.4998 8.0978 17.2329 8.49738 16.8246 8.66655C16.689 8.72197 16.5475 8.74967 16.406 8.74967Z" fill="#D4B373"/>
<path d="M10.209 22.2399V30.6253H1.45898V22.2399C1.45898 21.2337 2.27565 20.417 3.2819 20.417H8.38607C9.39232 20.417 10.209 21.2337 10.209 22.2399Z" fill="#D4B373"/>
<path d="M21.875 16.4059V30.6247H13.125V16.4059C13.125 15.3997 13.9417 14.583 14.9479 14.583H20.0521C21.0583 14.583 21.875 15.3997 21.875 16.4059Z" fill="#D4B373"/>
<path d="M33.541 10.5729V30.625H24.791V10.5729C24.791 9.56667 25.6077 8.75 26.6139 8.75H31.7181C32.7243 8.75 33.541 9.56667 33.541 10.5729Z" fill="#D4B373"/>
<path d="M33.9062 35H1.09375C0.49 35 0 34.51 0 33.9062C0 33.3025 0.49 32.8125 1.09375 32.8125H33.9062C34.51 32.8125 35 33.3025 35 33.9062C35 34.51 34.51 35 33.9062 35Z" fill="#D4B373"/>
</g>
<defs>
<clipPath id="clip0">
<rect width="35" height="35" fill="white"/>
</clipPath>
</defs>
</svg>
