<svg width="80" height="80" viewBox="0 0 80 80" fill="none" xmlns="http://www.w3.org/2000/svg">
<circle cx="40" cy="40" r="40" fill="#D4B373"/>
<path d="M48.8527 32.1543C47.7578 31.0486 46.4552 30.1701 45.0197 29.5693C43.5842 28.9684 42.0442 28.6572 40.4881 28.6534C38.9319 28.6495 37.3904 28.9532 35.952 29.5469C34.5136 30.1407 33.2066 31.0128 32.1063 32.1131C31.0059 33.2135 30.1338 34.5204 29.5401 35.9588C28.9464 37.3972 28.6427 38.9388 28.6465 40.4949C28.6504 42.051 28.9616 43.5911 29.5624 45.0265C30.1632 46.462 31.0417 47.7646 32.1475 48.8595C33.2424 49.9653 34.545 50.8438 35.9805 51.4446C37.416 52.0454 38.956 52.3567 40.5121 52.3605C42.0683 52.3643 43.6098 52.0607 45.0482 51.4669C46.4866 50.8732 47.7936 50.0011 48.8939 48.9008C49.9943 47.8004 50.8664 46.4935 51.4601 45.0551C52.0538 43.6167 52.3575 42.0751 52.3537 40.519C52.3498 38.9629 52.0386 37.4228 51.4378 35.9873C50.837 34.5519 49.9585 33.2493 48.8527 32.1543ZM30.3751 40.5069C30.3747 39.6108 30.4935 38.7186 30.7284 37.8539C31.1155 38.6871 31.6776 39.4069 32.06 40.2617C32.5541 41.3607 33.8809 41.0559 34.4668 42.0188C34.9867 42.8737 34.4314 43.9547 34.8206 44.8491C35.1033 45.4982 35.7698 45.6401 36.2297 46.1147C36.6995 46.5935 36.6895 47.2496 36.7612 47.8739C36.8422 48.6075 36.9734 49.3347 37.1541 50.0503C37.1541 50.0555 37.1541 50.0614 37.1583 50.0666C33.2122 48.6808 30.3751 44.9192 30.3751 40.5069ZM40.5001 50.6319C39.9347 50.6318 39.3702 50.5845 38.8126 50.4906C38.8184 50.3477 38.821 50.2143 38.8353 50.1215C38.9634 49.283 39.3832 48.463 39.9496 47.8354C40.5091 47.2163 41.2758 46.7976 41.7483 46.0952C42.2113 45.4097 42.35 44.4868 42.1591 43.6858C41.878 42.5024 40.2702 42.1074 39.4032 41.4656C38.9049 41.0965 38.4614 40.5259 37.807 40.4795C37.5053 40.4584 37.2527 40.5233 36.9537 40.4463C36.6795 40.3751 36.4643 40.2274 36.1722 40.2659C35.6264 40.3377 35.282 40.9209 34.6956 40.8418C34.1393 40.7674 33.5661 40.1162 33.4395 39.5862C33.2771 38.9049 33.816 38.6839 34.3935 38.6233C34.6345 38.598 34.905 38.5705 35.1365 38.6591C35.4413 38.772 35.5853 39.0705 35.8589 39.2213C36.3721 39.5029 36.4759 39.053 36.3974 38.5974C36.2798 37.915 36.1427 37.6371 36.7512 37.1673C37.1731 36.8435 37.5338 36.6093 37.4663 36.0277C37.4262 35.686 37.239 35.5314 37.4136 35.1913C37.5459 34.9324 37.9093 34.6988 38.146 34.5443C38.7572 34.1456 40.7643 34.1751 39.9443 33.0593C39.7033 32.7318 39.2587 32.1464 38.8369 32.0663C38.3095 31.9666 38.0754 32.5551 37.7078 32.8146C37.3281 33.083 36.5888 33.3878 36.2086 32.9728C35.6971 32.4143 36.5477 32.2313 36.7359 31.8411C36.8229 31.6592 36.7359 31.4066 36.5893 31.1687C36.7795 31.0886 36.9729 31.0142 37.1694 30.9457C37.2926 31.0366 37.4387 31.0914 37.5913 31.1039C37.9441 31.1271 38.2768 30.9362 38.5848 31.1766C38.9265 31.4403 39.1728 31.7736 39.6263 31.8559C40.065 31.9355 40.5296 31.6797 40.6383 31.2304C40.7042 30.9573 40.6383 30.6688 40.575 30.3867C42.5473 30.398 44.4727 30.9887 46.1121 32.0853C46.0066 32.0452 45.8806 32.0499 45.725 32.1222C45.4049 32.2709 44.9514 32.6495 44.914 33.025C44.8713 33.4511 45.4998 33.5112 45.7983 33.5112C46.2466 33.5112 46.7006 33.3108 46.5561 32.793C46.4934 32.5683 46.4079 32.3347 46.2703 32.1934C46.6012 32.4229 46.9181 32.6719 47.2195 32.939C47.2148 32.9438 47.21 32.948 47.2053 32.9533C46.9015 33.2697 46.5487 33.5202 46.341 33.9051C46.1944 34.1762 46.0293 34.3048 45.7324 34.375C45.5689 34.4135 45.3822 34.4277 45.2451 34.5374C44.8633 34.838 45.0806 35.5605 45.4424 35.7772C45.8996 36.0509 46.5777 35.9222 46.9226 35.5314C47.1921 35.2256 47.3508 34.6946 47.8355 34.6951C48.0488 34.6946 48.2538 34.7782 48.406 34.9276C48.6064 35.1354 48.5669 35.3295 48.6096 35.5889C48.685 36.0498 49.0916 35.7999 49.3389 35.5673C49.5192 35.8882 49.6819 36.2186 49.8262 36.5571C49.5541 36.9489 49.3379 37.3761 48.6834 36.9194C48.2916 36.6457 48.0506 36.2486 47.5586 36.1252C47.1288 36.0198 46.6885 36.1295 46.264 36.2028C45.7814 36.2866 45.2093 36.3235 44.8433 36.689C44.4895 37.0412 44.3022 37.5127 43.9257 37.8665C43.1975 38.5521 42.89 39.3004 43.3615 40.2696C43.815 41.2014 44.7637 41.7072 45.7873 41.6407C46.7929 41.5738 47.8376 40.9905 47.8086 42.4518C47.798 42.9691 47.9061 43.3272 48.0648 43.8076C48.212 44.2506 48.202 44.6798 48.2357 45.137C48.2678 45.6724 48.3515 46.2034 48.4857 46.7227C47.5404 47.9397 46.3296 48.9246 44.9456 49.6021C43.5616 50.2796 42.041 50.6319 40.5001 50.6319Z" fill="white"/>
</svg>
