<svg width="21" height="20" viewBox="0 0 21 20" fill="none" xmlns="http://www.w3.org/2000/svg">
<path fill-rule="evenodd" clip-rule="evenodd" d="M4.75465 6.49832H0.258841V20H4.75465V6.49832ZM5.04073 2.3298C5.02717 1.00792 4.07345 0 2.53398 0C1.0081 0 0 1.00792 0 2.3298C0 3.62431 0.967305 4.6596 2.47951 4.6596H2.50675C4.07345 4.6596 5.05441 3.62431 5.04073 2.3298ZM20.9259 12.2608C20.9259 8.12021 18.719 6.18489 15.7626 6.18489C13.3376 6.18489 12.2749 7.53415 11.689 8.46048H11.7163V6.49832H7.23416C7.23416 6.49832 7.28863 7.76547 7.23416 20H11.7163V12.4658C11.7163 12.0569 11.7572 11.6613 11.8662 11.3624C12.1932 10.5584 12.9289 9.72709 14.1686 9.72709C15.7898 9.72709 16.4437 10.9669 16.4437 12.7793V20H20.9259V12.2608Z" fill="white"/>
</svg>
