<svg width="100" height="100" viewBox="0 0 100 100" fill="none" xmlns="http://www.w3.org/2000/svg">
<circle cx="50" cy="50" r="49" stroke="#D4B373" stroke-width="2"/>
<g clip-path="url(#clip0)">
<circle cx="50" cy="50" r="49" stroke="#C5A37D" stroke-width="2"/>
<path d="M65.2279 61.583L56.8565 48.6973V38.375H57.4279C58.3779 38.375 59.1422 37.6436 59.1422 36.7344V35.6406C59.1422 34.7314 58.3779 34 57.4279 34H42.5708C41.6208 34 40.8565 34.7314 40.8565 35.6406V36.7344C40.8565 37.6436 41.6208 38.375 42.5708 38.375H43.1422V48.6973L34.7708 61.583C32.6779 64.8027 35.0922 69 39.0636 69H60.935C64.9136 69 67.3208 64.7959 65.2279 61.583ZM43.8493 55.875L47.2922 50.5703C47.5565 50.2148 47.7065 49.7773 47.7065 49.3125V38.375H52.2779V49.3125C52.2779 49.7842 52.435 50.2148 52.6922 50.5703L56.135 55.875H43.8493Z" fill="#D4B373"/>
</g>
<defs>
<clipPath id="clip0">
<rect width="32" height="35" fill="white" transform="translate(34 34)"/>
</clipPath>
</defs>
</svg>
