<svg width="34" height="34" viewBox="0 0 34 34" fill="none" xmlns="http://www.w3.org/2000/svg">
<path d="M26.0232 6.60416C26.0232 5.54513 25.603 4.52777 24.8531 3.77777L22.2454 1.17014C21.4954 0.420138 20.4781 0 19.419 0H10.0579C8.90864 0 7.97461 0.934027 7.97461 2.08333V8.7743H26.0267V6.60416H26.0232Z" fill="#D4B373"/>
<path d="M2.16536 28.5449H5.74175V21.3088H7.97439H26.0265H28.2591V28.5449H31.8355C32.9848 28.5449 33.9188 27.6108 33.9188 26.4615V13.2845C33.9188 12.1352 32.9848 11.2012 31.8355 11.2012H26.023H7.97439H2.16536C1.01606 11.2012 0.0820313 12.1352 0.0820313 13.2845V26.4615C0.0820312 27.6143 1.01259 28.5449 2.16536 28.5449ZM5.4605 14.0484C6.66883 14.0484 7.648 15.0276 7.648 16.2359C7.648 17.4442 6.66883 18.4234 5.4605 18.4234C4.25217 18.4234 3.273 17.4442 3.273 16.2359C3.273 15.0276 4.25217 14.0484 5.4605 14.0484Z" fill="#D4B373"/>
<path d="M26.1754 32.9615V30.9789V29.7636V28.5483V23.3921H25.7414H8.25532H7.82129V28.5449V29.7601V30.9754V32.9581C7.82129 33.531 8.29004 33.9997 8.86295 33.9997H25.1338C25.7067 34.0032 26.1754 33.5344 26.1754 32.9615ZM12.4845 27.656H21.5122C22.0366 27.656 22.4706 28.0414 22.5435 28.5449C22.5504 28.5935 22.5539 28.6456 22.5539 28.6976C22.5539 29.2741 22.0886 29.7393 21.5122 29.7393H12.4845C11.9081 29.7393 11.4428 29.2741 11.4428 28.6976C11.4428 28.6456 11.4463 28.597 11.4532 28.5449C11.5261 28.0414 11.9602 27.656 12.4845 27.656Z" fill="#D4B373"/>
</svg>
