<svg width="245" height="40" viewBox="0 0 245 40" fill="none" xmlns="http://www.w3.org/2000/svg">
<path d="M42.0404 23.425H48.5654V26H37.8904V23.6C39.8404 22.2167 41.5238 20.7417 42.9404 19.175C44.3571 17.5917 45.0654 16.1667 45.0654 14.9C45.0654 14.0667 44.8238 13.4167 44.3404 12.95C43.8571 12.4833 43.1571 12.25 42.2404 12.25C40.8571 12.25 39.5321 12.7667 38.2654 13.8V10.875C38.8154 10.4583 39.4988 10.1167 40.3154 9.85C41.1321 9.58333 41.9488 9.45 42.7654 9.45C44.3654 9.45 45.6654 9.89167 46.6654 10.775C47.6821 11.6417 48.1904 12.8667 48.1904 14.45C48.1904 17.4167 46.1404 20.4083 42.0404 23.425ZM57.2416 23.425H63.7666V26H53.0916V23.6C55.0416 22.2167 56.7249 20.7417 58.1416 19.175C59.5583 17.5917 60.2666 16.1667 60.2666 14.9C60.2666 14.0667 60.0249 13.4167 59.5416 12.95C59.0583 12.4833 58.3583 12.25 57.4416 12.25C56.0583 12.25 54.7333 12.7667 53.4666 13.8V10.875C54.0166 10.4583 54.6999 10.1167 55.5166 9.85C56.3333 9.58333 57.1499 9.45 57.9666 9.45C59.5666 9.45 60.8666 9.89167 61.8666 10.775C62.8833 11.6417 63.3916 12.8667 63.3916 14.45C63.3916 17.4167 61.3416 20.4083 57.2416 23.425ZM73.6178 17.475L68.5178 9.15H72.1928L75.4178 14.675C75.6511 14.225 76.2011 13.2417 77.0678 11.725C77.9511 10.1917 78.4428 9.33333 78.5428 9.15H82.3678L77.2678 17.475L82.7928 26H79.0428L75.4678 20.175C75.2178 20.6583 74.6178 21.6833 73.6678 23.25C72.7344 24.8 72.1928 25.7167 72.0428 26H68.2678L73.6178 17.475ZM96.9863 26L98.1613 9.15H100.286L102.486 15.325L105.461 23.9C106.611 20.7333 107.661 17.875 108.611 15.325L110.911 9.15H113.036L114.461 26H112.911L112.336 19.325L111.661 11.175C110.661 13.9583 109.67 16.675 108.686 19.325L106.361 25.575H104.536L102.336 19.325L99.5363 11.35C99.3863 13.8667 99.2113 16.525 99.0113 19.325L98.5363 26H96.9863ZM123.778 19.95H130.303L129.928 18.875L127.078 10.45C126.861 11.1167 125.886 13.9333 124.153 18.9L123.778 19.95ZM132.353 26L130.753 21.325H123.303L121.678 26H120.003L125.953 9.15H128.203L134.028 26H132.353ZM141.271 17.775H143.996C145.229 17.775 146.179 17.4333 146.846 16.75C147.512 16.0667 147.846 15.2167 147.846 14.2C147.846 11.75 146.462 10.525 143.696 10.525H141.271V17.775ZM150.371 26H148.521L144.296 19.15H143.821H141.271V26H139.721V9.15H143.521C145.487 9.15 146.954 9.6 147.921 10.5C148.904 11.3833 149.396 12.6417 149.396 14.275C149.362 15.4083 149.046 16.3833 148.446 17.2C147.846 18.0167 146.996 18.575 145.896 18.875L150.371 26ZM155.752 26V9.15H157.302V26H155.752ZM159.727 17.7L166.727 26H164.677L157.752 17.7L164.427 9.15H166.377L159.727 17.7ZM173.773 24.575H181.348V26H172.223V9.15H181.198V10.575H173.773V16.875H180.323V18.3H173.773V24.575ZM196.479 9.15V10.575H191.804V26H190.254V10.575H185.604V9.15H196.479ZM201.725 26V9.15H203.275V26H201.725ZM210.16 26V9.15H212.285L216.585 16.275L221.335 24.175C221.302 22.4417 221.285 19.8167 221.285 16.3V9.15H222.835V26H220.71L216.435 18.925L211.66 10.975C211.693 12.775 211.71 15.4083 211.71 18.875V26H210.16ZM242.36 16.725V24.75C241.043 25.7167 239.377 26.2 237.36 26.2C234.793 26.2 232.727 25.4333 231.16 23.9C229.61 22.35 228.835 20.2333 228.835 17.55C228.835 15.0167 229.593 12.9333 231.11 11.3C232.643 9.66667 234.577 8.85 236.91 8.85C238.893 8.85 240.527 9.24167 241.81 10.025V11.75C240.527 10.85 238.96 10.4 237.11 10.4C235.143 10.4 233.535 11.0583 232.285 12.375C231.052 13.675 230.435 15.4 230.435 17.55C230.435 19.7667 231.052 21.5083 232.285 22.775C233.518 24.025 235.218 24.65 237.385 24.65C238.668 24.65 239.81 24.3917 240.81 23.875V18.1H236.835V16.725H242.36Z" fill="white"/>
<path fill-rule="evenodd" clip-rule="evenodd" d="M13.3168 5.43017L14.5408 3L15.7647 5.43017L18.131 7.77933L20.0894 11.9106V11.9106V17.4055C16.0851 16.2122 14.6954 12.642 14.5052 10.9091C13.5347 15.8268 9.70343 17.4194 7.90909 17.6009C11.2773 17.8628 13.2714 20.8973 14.1354 23.0893H8.91061V23.0894L4.77933 20.9679L2.43017 18.6832L0 17.4592L2.43017 16.2353L4.77933 13.869L8.9106 11.9107V11.9106V11.9106H8.91062L11.0321 7.77933L13.3168 5.43017ZM14.1354 23.0894C14.2983 23.5026 14.421 23.8859 14.5052 24.215C14.5792 23.8189 14.6752 23.444 14.7901 23.0894H20.0894L17.9679 27.2207L15.6832 29.5698L14.4592 32L13.2353 29.5698L10.869 27.2207L8.91063 23.0894H14.1354ZM14.7901 23.0893C15.8208 19.9071 18.3659 18.3574 20.0894 17.8002V23.0893H14.7901ZM20.0894 17.8002V23.0893L24.2207 21.131L26.5698 18.7647L29 17.5408L26.5698 16.3168L24.2207 14.0321L20.0894 11.9106V17.4055C20.3405 17.4804 20.6018 17.5458 20.8738 17.6009C20.6425 17.6416 20.3774 17.707 20.0894 17.8002Z" fill="#D4B373"/>
</svg>
