<svg width="245" height="40" viewBox="0 0 245 40" fill="none" xmlns="http://www.w3.org/2000/svg">
<path d="M42.0004 23.4H48.5004V26H37.9004V23.6C39.9004 22.2 41.5004 20.7 42.9004 19.2C44.3004 17.6 45.0004 16.2 45.0004 14.9C45.0004 14.1 44.8004 13.4 44.3004 13C43.8004 12.5 43.1004 12.3 42.2004 12.3C40.8004 12.3 39.5004 12.8 38.2004 13.9V11C38.7004 10.6 39.4004 10.2 40.2004 10C41.0004 9.7 41.8004 9.6 42.7004 9.6C44.3004 9.6 45.6004 10 46.6004 10.9C47.6004 11.8 48.1004 13 48.1004 14.6C48.2004 17.4 46.1004 20.4 42.0004 23.4ZM57.2004 23.4H63.7004V26H53.1004V23.6C55.1004 22.2 56.7004 20.7 58.2004 19.2C59.6004 17.6 60.3004 16.2 60.3004 14.9C60.3004 14.1 60.1004 13.4 59.6004 13C59.1004 12.5 58.4004 12.3 57.5004 12.3C56.1004 12.3 54.8004 12.8 53.5004 13.9V11C54.1004 10.6 54.7004 10.2 55.6004 10C56.4004 9.7 57.2004 9.6 58.0004 9.6C59.6004 9.6 60.9004 10 61.9004 10.9C62.9004 11.8 63.4004 13 63.4004 14.6C63.4004 17.4 61.3004 20.4 57.2004 23.4ZM73.6004 17.5L68.5004 9.2H72.2004L75.4004 14.7C75.6004 14.3 76.2004 13.3 77.1004 11.8C78.0004 10.3 78.5004 9.4 78.6004 9.2H82.4004L77.3004 17.5L82.8004 26H79.0004L75.4004 20.2C75.1004 20.7 74.6004 21.7 73.6004 23.3C72.7004 24.8 72.1004 25.8 72.0004 26.1H68.2004L73.6004 17.5ZM97.0004 26L98.2004 9.1H100.3L102.5 15.3L105.5 23.9C106.7 20.7 107.7 17.9 108.7 15.3L111 9.1H113.1L114.5 26H113L112.4 19.3L111.7 11.1C110.7 13.9 109.7 16.6 108.7 19.3L106.4 25.6H104.6L102.4 19.3L99.6004 11.3C99.4004 13.8 99.3004 16.5 99.1004 19.3L98.5004 26H97.0004ZM123.8 20H130.3L129.9 18.9L127.1 10.5C126.9 11.2 125.9 14 124.2 18.9L123.8 20ZM132.4 26L130.8 21.3H123.3L121.7 26H120L126 9.1H128.3L134 26H132.4ZM141.3 17.8H144C145.2 17.8 146.2 17.5 146.8 16.8C147.5 16.1 147.8 15.3 147.8 14.2C147.8 11.8 146.4 10.5 143.7 10.5H141.3V17.8ZM150.4 26H148.5L144.3 19.1H143.8H141.2V26H139.6V9.2H143.4C145.4 9.2 146.8 9.7 147.8 10.6C148.8 11.5 149.3 12.7 149.3 14.4C149.3 15.5 149 16.5 148.4 17.3C147.8 18.1 147 18.7 145.8 19L150.4 26ZM155.8 26V9.2H157.4V26H155.8ZM159.7 17.7L166.7 26H164.6L157.7 17.7L164.4 9.1H166.3L159.7 17.7ZM173.8 24.6H181.4V26H172.3V9.2H181.3V10.6H173.9V16.9H180.5V18.3H173.9V24.6H173.8ZM196.5 9.2V10.6H191.8V26H190.2V10.6H185.6V9.2H196.5ZM201.7 26V9.2H203.2V26H201.7ZM210.2 26V9.2H212.3L216.6 16.3L221.4 24.2C221.4 22.5 221.3 19.8 221.3 16.3V9.2H222.9V26H220.8L216.5 18.9L211.7 11C211.7 12.8 211.8 15.4 211.8 18.9V26H210.2ZM242.4 16.7V24.7C241.1 25.7 239.4 26.2 237.4 26.2C234.8 26.2 232.8 25.4 231.2 23.9C229.6 22.4 228.9 20.2 228.9 17.5C228.9 15 229.7 12.9 231.2 11.3C232.7 9.7 234.7 8.9 237 8.9C239 8.9 240.6 9.3 241.9 10.1V11.8C240.6 10.9 239.1 10.4 237.2 10.4C235.2 10.4 233.6 11.1 232.4 12.4C231.2 13.7 230.5 15.4 230.5 17.6C230.5 19.8 231.1 21.6 232.4 22.8C233.6 24.1 235.3 24.7 237.5 24.7C238.8 24.7 239.9 24.4 240.9 23.9V18.1H236.9V16.7H242.4V16.7Z" fill="white"/>
<path d="M26.6 16.3L24.2 14L20.1 11.9L18.1 7.8L15.7 5.5L14.5 3L13.3 5.4L11 7.8L8.9 11.9L4.8 13.9L2.5 16.3L0 17.5L2.4 18.7L4.8 21L8.9 23.1L10.9 27.2L13.3 29.5L14.5 31.9L15.7 29.5L18 27.2L20.1 23.1L24.2 21.1L26.5 18.7L28.9 17.5L26.6 16.3ZM20.1 17.8C18.4 18.4 15.8 19.9 14.8 23.1C14.7 23.5 14.6 23.8 14.5 24.2C14.4 23.9 14.3 23.5 14.1 23.1C13.2 20.9 11.2 17.9 7.9 17.6C9.7 17.4 13.5 15.8 14.5 10.9C14.7 12.6 16.1 16.2 20.1 17.4C20.4 17.5 20.6 17.5 20.9 17.6C20.6 17.6 20.4 17.7 20.1 17.8Z" fill="#D4B373"/>
</svg>
